<svg viewBox="0 0 860 400" xmlns="http://www.w3.org/2000/svg">
  <defs>
    <radialGradient id="fmBg" cx="50%" cy="40%" r="75%">
      <stop offset="0%" stop-color="#251a42"/>
      <stop offset="100%" stop-color="#0c0818"/>
    </radialGradient>
    <radialGradient id="fmGlowGold" cx="50%" cy="50%" r="50%">
      <stop offset="0%" stop-color="#f5c26b" stop-opacity="0.9"/>
      <stop offset="100%" stop-color="#f5c26b" stop-opacity="0"/>
    </radialGradient>
    <radialGradient id="fmGlowCyan" cx="50%" cy="50%" r="50%">
      <stop offset="0%" stop-color="#22d3ee" stop-opacity="0.9"/>
      <stop offset="100%" stop-color="#22d3ee" stop-opacity="0"/>
    </radialGradient>
    <filter id="fmBlur" x="-100%" y="-100%" width="300%" height="300%">
      <feGaussianBlur stdDeviation="14"/>
    </filter>
    <filter id="fmSoftBlur" x="-100%" y="-100%" width="300%" height="300%">
      <feGaussianBlur stdDeviation="3"/>
    </filter>
  </defs>

  <rect width="860" height="400" fill="url(#fmBg)"/>

  <circle cx="620" cy="150" r="140" fill="url(#fmGlowGold)" filter="url(#fmBlur)" opacity="0.35"/>
  <circle cx="220" cy="280" r="160" fill="url(#fmGlowCyan)" filter="url(#fmBlur)" opacity="0.4"/>

  <g stroke="#22d3ee" stroke-width="1" opacity="0.35" fill="none">
    <path d="M140 120 L340 90 L540 160 L700 110"/>
    <path d="M140 120 L260 220 L430 190 L540 160"/>
    <path d="M260 220 L340 90"/>
    <path d="M430 190 L620 260 L700 110"/>
    <path d="M180 300 L260 220 L430 190"/>
    <path d="M620 260 L760 300"/>
    <path d="M180 300 L340 340 L620 260"/>
  </g>

  <g>
    <circle cx="140" cy="120" r="5" fill="#22d3ee"/>
    <circle cx="340" cy="90" r="4" fill="#67e8f9"/>
    <circle cx="540" cy="160" r="6" fill="#f5c26b"/>
    <circle cx="700" cy="110" r="4" fill="#22d3ee"/>
    <circle cx="260" cy="220" r="7" fill="#f5c26b"/>
    <circle cx="430" cy="190" r="5" fill="#22d3ee"/>
    <circle cx="620" cy="260" r="8" fill="#67e8f9"/>
    <circle cx="760" cy="300" r="4" fill="#22d3ee"/>
    <circle cx="180" cy="300" r="5" fill="#22d3ee"/>
    <circle cx="340" cy="340" r="4" fill="#f5c26b"/>
  </g>

  <g filter="url(#fmSoftBlur)" opacity="0.7">
    <circle cx="260" cy="220" r="10" fill="#f5c26b"/>
    <circle cx="620" cy="260" r="11" fill="#67e8f9"/>
  </g>

  <g opacity="0.15" stroke="#22d3ee" stroke-width="0.5">
    <line x1="0" y1="60" x2="860" y2="60"/>
    <line x1="0" y1="340" x2="860" y2="340"/>
  </g>

  <text x="40" y="42" fill="#67e8f9" font-family="Inter, sans-serif" font-size="13" font-weight="600" letter-spacing="1.5">MORTGAGE RISK NETWORK</text>
</svg>
